HIERARCHY
ROOT Hips
{
	OFFSET 0.000000 0.000000 0.000000 
	CHANNELS 6 Xposition Yposition Zposition Zrotation Yrotation Xrotation
	JOINT LHipJoint
	{
		OFFSET 0.000000 0.000000 0.000000 
		CHANNELS 3 Zrotation Yrotation Xrotation
		JOINT LeftUpLeg
		{
			OFFSET 0.049174 -0.055197 0.022926 
			CHANNELS 3 Zrotation Yrotation Xrotation
			JOINT LeftLeg
			{
				OFFSET 0.075187 -0.206577 0.000000 
				CHANNELS 3 Zrotation Yrotation Xrotation
				JOINT LeftFoot
				{
					OFFSET 0.083177 -0.228528 0.000000 
					CHANNELS 3 Zrotation Yrotation Xrotation
					JOINT LeftToeBase
					{
						OFFSET 0.006522 -0.017919 0.066408 
						CHANNELS 3 Zrotation Yrotation Xrotation
						End Site
						{
							OFFSET 0.000000 -0.000000 0.034549 
						}
					}
				}
			}
		}
	}
	JOINT RHipJoint
	{
		OFFSET 0.000000 0.000000 0.000000 
		CHANNELS 3 Zrotation Yrotation Xrotation
		JOINT RightUpLeg
		{
			OFFSET -0.046656 -0.055197 0.022926 
			CHANNELS 3 Zrotation Yrotation Xrotation
			JOINT RightLeg
			{
				OFFSET -0.076145 -0.209206 0.000000 
				CHANNELS 3 Zrotation Yrotation Xrotation
				JOINT RightFoot
				{
					OFFSET -0.082175 -0.225773 0.000000 
					CHANNELS 3 Zrotation Yrotation Xrotation
					JOINT RightToeBase
					{
						OFFSET -0.008058 -0.022138 0.069332 
						CHANNELS 3 Zrotation Yrotation Xrotation
						End Site
						{
							OFFSET -0.000000 -0.000000 0.036391 
						}
					}
				}
			}
		}
	}
	JOINT LowerBack
	{
		OFFSET 0.000000 0.000000 0.000000 
		CHANNELS 3 Zrotation Yrotation Xrotation
		JOINT Spine
		{
			OFFSET -0.000011 0.066375 -0.007953 
			CHANNELS 3 Zrotation Yrotation Xrotation
			JOINT Spine1
			{
				OFFSET 0.001748 0.066993 -0.001037 
				CHANNELS 3 Zrotation Yrotation Xrotation
				JOINT Neck
				{
					OFFSET 0.000000 0.000000 0.000000 
					CHANNELS 3 Zrotation Yrotation Xrotation
					JOINT Neck1
					{
						OFFSET -0.003073 0.050852 0.007566 
						CHANNELS 3 Zrotation Yrotation Xrotation
						JOINT Head
						{
							OFFSET 0.003390 0.051888 -0.007078 
							CHANNELS 3 Zrotation Yrotation Xrotation
							End Site
							{
								OFFSET 0.001370 0.052583 -0.003294 
							}
						}
					}
				}
				JOINT LeftShoulder
				{
					OFFSET 0.000000 0.000000 0.000000 
					CHANNELS 3 Zrotation Yrotation Xrotation
					JOINT LeftArm
					{
						OFFSET 0.102846 0.024812 -0.021306 
						CHANNELS 3 Zrotation Yrotation Xrotation
						JOINT LeftForeArm
						{
							OFFSET 0.161034 -0.000000 -0.000000 
							CHANNELS 3 Zrotation Yrotation Xrotation
							JOINT LeftHand
							{
								OFFSET 0.117231 -0.000000 -0.000000 
								CHANNELS 3 Zrotation Yrotation Xrotation
								JOINT LeftFingerBase
								{
									OFFSET 0.000000 0.000000 0.000000 
									CHANNELS 3 Zrotation Yrotation Xrotation
									JOINT LeftHandIndex1
									{
										OFFSET 0.016537 -0.000000 0.000000 
										CHANNELS 3 Zrotation Yrotation Xrotation
										End Site
										{
											OFFSET 0.013332 -0.000000 0.000000 
										}
									}
								}
								JOINT LThumb
								{
									OFFSET 0.000000 0.000000 0.000000 
									CHANNELS 3 Zrotation Yrotation Xrotation
									End Site
									{
										OFFSET 0.013536 -0.000000 0.013536 
									}
								}
							}
						}
					}
				}
				JOINT RightShoulder
				{
					OFFSET 0.000000 0.000000 0.000000 
					CHANNELS 3 Zrotation Yrotation Xrotation
					JOINT RightArm
					{
						OFFSET -0.096067 0.033214 -0.013856 
						CHANNELS 3 Zrotation Yrotation Xrotation
						JOINT RightForeArm
						{
							OFFSET -0.165504 -0.000000 0.000000 
							CHANNELS 3 Zrotation Yrotation Xrotation
							JOINT RightHand
							{
								OFFSET -0.117545 -0.000000 -0.000000 
								CHANNELS 3 Zrotation Yrotation Xrotation
								JOINT RightFingerBase
								{
									OFFSET 0.000000 0.000000 0.000000 
									CHANNELS 3 Zrotation Yrotation Xrotation
									JOINT RightHandIndex1
									{
										OFFSET -0.023354 -0.000000 0.000000 
										CHANNELS 3 Zrotation Yrotation Xrotation
										End Site
										{
											OFFSET -0.018828 -0.000000 0.000000 
										}
									}
								}
								JOINT RThumb
								{
									OFFSET 0.000000 0.000000 0.000000 
									CHANNELS 3 Zrotation Yrotation Xrotation
									End Site
									{
										OFFSET -0.019116 -0.000000 0.019116 
									}
								}
							}
						}
					}
				}
			}
		}
	}
}
MOTION
Frames: 6
Frame Time: 0.008333
0.274875 0.494684 0.083219 27.157700 -25.958000 -17.581699 0.000000 0.000000 0.000000 -20.455299 -6.884000 15.196500 2.390300 9.635700 27.805000 0.853000 -4.840900 19.852699 3.206200 -11.021600 -32.352798 0.000000 0.000000 0.000000 5.050300 0.422700 -43.507999 -13.799500 -19.052099 71.591301 -0.035800 8.683600 -6.752800 -0.839300 -5.843800 16.332001 -13.997500 -1.851600 10.159200 -2.660900 -4.442100 -1.223000 5.642500 -1.747800 -6.235600 -16.168900 -10.887500 -8.425400 6.309100 -13.957800 19.704800 3.111500 -7.251300 9.188300 -0.000000 0.000000 0.000000 -87.824600 10.846700 39.710999 98.072304 -59.752300 -66.985001 -0.000000 0.000000 -13.113800 18.412100 7.026500 2.331900 -7.125000 0.000000 -0.000000 -7.115700 37.296902 1.357200 -0.000000 0.000000 0.000000 79.137497 -17.777500 49.105000 -131.356506 52.433498 -94.905197 0.000000 -0.000000 -5.507300 -7.479300 20.564400 -2.640300 7.125000 -0.000000 -0.000000 13.415700 -9.694100 11.287300 
0.266947 0.498559 0.093750 22.339701 -30.924000 -16.366800 0.000000 0.000000 0.000000 -16.091600 -6.555000 17.402201 2.424800 9.699900 28.010401 1.087400 -5.183200 22.210899 2.008700 -8.884200 -25.433800 0.000000 0.000000 0.000000 12.219700 3.140400 -39.449799 -13.310100 -18.891300 70.085800 -0.156800 7.665900 -8.284100 -0.880000 -5.980300 16.727400 -6.898400 -1.271500 8.972800 -1.451300 -2.537800 -0.641200 2.694300 -1.075600 -5.488500 -16.459101 -11.101600 -8.322300 6.653800 -14.255200 19.035000 3.237700 -7.368900 9.023500 0.000000 0.000000 0.000000 -87.178802 11.112200 38.258301 97.026497 -59.812599 -66.081299 -0.000000 0.000000 -12.001000 17.922501 7.728100 2.490300 -7.125000 0.000000 -0.000000 -7.628000 37.995300 1.324800 0.000000 0.000000 0.000000 79.043198 -17.232401 48.629902 -130.807495 52.664600 -94.469299 0.000000 -0.000000 -5.927200 -7.648900 20.130899 -2.646400 7.125000 -0.000000 -0.000000 13.312500 -10.104100 11.082000 
0.260303 0.500737 0.102353 23.625700 -33.277100 -16.984200 0.000000 0.000000 0.000000 -18.338699 -7.373800 18.154301 2.490900 9.821300 28.399799 1.539100 -4.174900 25.256500 0.564700 -4.812900 -13.375600 0.000000 0.000000 0.000000 12.123900 4.256300 -37.994999 -13.194100 -18.851101 69.727303 -0.190600 8.273500 -9.059900 -0.761400 -5.572600 15.549100 -6.020500 -0.636500 7.766500 -1.659700 -1.506400 -0.505200 1.828400 -0.619600 -4.784300 -16.351500 -11.194600 -8.096300 6.577600 -14.369200 18.269800 3.201500 -7.414300 8.719500 -0.000000 -0.000000 0.000000 -86.597504 11.331000 36.610001 94.437897 -59.925400 -63.842400 -0.000000 0.000000 -11.245600 18.333099 3.980500 1.317700 -7.125000 0.000000 -0.000000 -6.820400 34.111900 1.832900 -0.000000 -0.000000 0.000000 78.734802 -16.540100 48.200001 -130.262299 52.889198 -94.035202 0.000000 -0.000000 -6.350200 -7.749100 19.620100 -2.616200 7.125000 -0.000000 -0.000000 13.254600 -10.595700 10.894700 
0.254241 0.502700 0.110747 24.774799 -33.497101 -17.767300 0.000000 0.000000 0.000000 -20.812401 -9.188100 18.824200 2.647400 10.101000 29.304600 1.905400 -4.546000 28.025999 0.392500 -4.022900 -11.141200 0.000000 0.000000 0.000000 11.180200 3.319000 -36.465099 -13.133500 -18.829800 69.539497 -0.205200 9.643900 -9.862100 -0.771200 -5.607500 15.649600 -5.331400 -0.665400 7.157300 -1.962600 -1.442200 -0.289300 1.109500 -0.626300 -4.242100 -15.794100 -11.289400 -9.199100 5.550700 -14.221100 18.859301 2.730300 -7.375900 8.979600 0.000000 -0.000000 0.000000 -86.217499 11.687900 35.062099 92.941902 -59.967300 -62.547401 -0.000000 0.000000 -10.700400 18.667500 3.826600 1.291600 -7.125000 0.000000 -0.000000 -6.531900 33.963600 1.778100 0.000000 -0.000000 0.000000 78.259598 -15.790700 47.809700 -129.696198 53.117298 -93.583099 0.000000 -0.000000 -6.855400 -8.210600 19.646299 -2.777400 7.125000 -0.000000 -0.000000 12.959900 -10.533000 10.655900 
0.248522 0.502703 0.117506 30.835899 -33.001598 -20.972401 0.000000 0.000000 0.000000 -27.589001 -9.921200 18.484900 2.861800 10.467900 30.505699 2.118400 -4.443100 29.364700 0.187100 -2.786200 -7.684000 0.000000 0.000000 0.000000 5.153000 2.835100 -36.186100 -13.476100 -18.947399 70.598000 -0.143200 12.333000 -10.470500 -0.911500 -6.083600 17.027201 -9.666100 -0.215600 6.704600 -3.162800 -1.224000 -0.217100 2.237200 -0.464100 -3.878700 -16.602400 -11.359400 -7.604900 6.911000 -14.588700 16.541901 3.366500 -7.488100 8.120600 0.000000 0.000000 0.000000 -85.857201 11.845800 33.562302 91.340401 -59.993198 -61.160801 -0.000000 0.000000 -10.261700 18.977900 4.251300 1.460300 -7.125000 0.000000 -0.000000 -6.320400 34.421200 1.649400 0.000000 0.000000 0.000000 77.663101 -14.882500 47.403400 -129.198395 53.313702 -93.184402 0.000000 -0.000000 -7.080000 -8.191500 19.480600 -2.748400 7.125000 -0.000000 -0.000000 12.973700 -10.697100 10.623300 
0.242987 0.501509 0.122356 36.909100 -31.500401 -23.612101 0.000000 0.000000 0.000000 -33.947498 -11.097200 16.887800 3.181500 10.983200 32.223202 2.214600 -3.534100 29.551001 0.091800 -1.953900 -5.378200 0.000000 0.000000 0.000000 -1.200000 2.064800 -36.916199 -13.913300 -19.087500 71.939598 -0.080900 14.549500 -11.117400 -0.952700 -6.215700 17.411400 -14.983600 -0.008700 6.468900 -4.366700 -1.428200 -0.307700 3.887200 -0.493700 -3.760600 -16.416500 -11.480600 -7.554600 7.297300 -14.790700 15.537100 3.456300 -7.526600 7.815300 0.000000 0.000000 0.000000 -85.435600 12.085700 31.966000 90.276398 -59.999699 -60.239399 -0.000000 0.000000 -10.129500 19.503799 5.026500 1.777500 -7.125000 0.000000 -0.000000 -5.966500 35.259499 1.434000 0.000000 0.000000 0.000000 77.308197 -13.451100 47.068298 -128.361404 53.635399 -92.511703 0.000000 -0.000000 -7.178800 -8.174300 19.246300 -2.710900 7.125000 -0.000000 -0.000000 12.987400 -10.928200 10.572100 
